<?xml version="1.0" encoding="utf-8"?>
<!-- Generator: Adobe Illustrator 22.0.1, SVG Export Plug-In . SVG Version: 6.00 Build 0)  -->
<svg version="1.1" id="Layer_1" xmlns="http://www.w3.org/2000/svg" xmlns:xlink="http://www.w3.org/1999/xlink" x="0px" y="0px"
	 viewBox="0 0 128 128" style="enable-background:new 0 0 128 128;" xml:space="preserve">
<style type="text/css">
	.st0{fill:#FFFFFF;}
</style>
<g>
	<g>
		<path class="st0" d="M85.3,46.5L54.5,77.3L42.8,65.6c-0.8-0.8-2-0.8-2.8,0c-0.8,0.8-0.8,2,0,2.8l14.5,14.5l33.6-33.6
			c0.8-0.8,0.8-2,0-2.8C87.3,45.7,86,45.7,85.3,46.5z M64,13.9c-27.6,0-50.1,22.5-50.1,50.1c0,27.6,22.5,50.1,50.1,50.1h0
			c27.6,0,50.1-22.5,50.1-50.1C114.2,36.4,91.7,13.9,64,13.9z M64,110.1L64,110.1c-25.4,0-46.1-20.7-46.1-46.1
			c0-25.4,20.7-46.1,46.1-46.1s46.1,20.7,46.1,46.1C110.2,89.4,89.5,110.1,64,110.1z"/>
	</g>
</g>
</svg>
